HIERARCHY
ROOT Hips
{
	OFFSET -0.001795 -0.223333 0.028219
	CHANNELS 6 Xposition Yposition Zposition Zrotation Yrotation Xrotation 
	JOINT LeftUpLeg
	{
		OFFSET 0.069520 -0.091406 -0.006815
		CHANNELS 3 Zrotation Yrotation Xrotation
		JOINT LeftLeg
		{
			OFFSET 0.034277 -0.375199 -0.004496
			CHANNELS 3 Zrotation Yrotation Xrotation
			JOINT LeftFoot
			{
				OFFSET -0.013596 -0.397961 -0.043693
				CHANNELS 3 Zrotation Yrotation Xrotation
				JOINT LeftToe
				{
					OFFSET 0.026358 -0.055791 0.119288
					CHANNELS 3 Zrotation Yrotation Xrotation
					End Site
					{
						OFFSET 0.000000 0.000000 0.000000
					}
				}
			}
		}
	}
	JOINT RightUpLeg
	{
		OFFSET -0.067670 -0.090522 -0.004320
		CHANNELS 3 Zrotation Yrotation Xrotation
		JOINT RightLeg
		{
			OFFSET -0.038290 -0.382569 -0.008850
			CHANNELS 3 Zrotation Yrotation Xrotation
			JOINT RightFoot
			{
				OFFSET 0.015774 -0.398415 -0.042312
				CHANNELS 3 Zrotation Yrotation Xrotation
				JOINT RightToe
				{
					OFFSET -0.025372 -0.048144 0.123348
					CHANNELS 3 Zrotation Yrotation Xrotation
					End Site
					{
						OFFSET 0.000000 0.000000 0.000000
					}
				}
			}
		}
	}
	JOINT Spine
	{
		OFFSET -0.002533 0.108963 -0.026696
		CHANNELS 3 Zrotation Yrotation Xrotation
		JOINT Spine1
		{
			OFFSET 0.005487 0.135180 0.001092
			CHANNELS 3 Zrotation Yrotation Xrotation
			JOINT Spine2
			{
				OFFSET 0.001457 0.052922 0.025425
				CHANNELS 3 Zrotation Yrotation Xrotation
				JOINT Neck
				{
					OFFSET -0.002778 0.213870 -0.042857
					CHANNELS 3 Zrotation Yrotation Xrotation
					JOINT Head
					{
						OFFSET 0.005152 0.064970 0.051349
						CHANNELS 3 Zrotation Yrotation Xrotation
						End Site
						{
							OFFSET 0.000000 0.000000 0.000000
						}
					}
				}
				JOINT LeftShoulder
				{
					OFFSET 0.078845 0.121749 -0.034090
					CHANNELS 3 Zrotation Yrotation Xrotation
					JOINT LeftArm
					{
						OFFSET 0.090977 0.030469 -0.008868
						CHANNELS 3 Zrotation Yrotation Xrotation
						JOINT LeftForeArm
						{
							OFFSET 0.259612 -0.012772 -0.027456
							CHANNELS 3 Zrotation Yrotation Xrotation
							JOINT LeftHand
							{
								OFFSET 0.249234 0.008986 -0.001171
								CHANNELS 3 Zrotation Yrotation Xrotation
								End Site
								{
									OFFSET 0.000000 0.000000 0.000000
								}
							}
						}
					}
				}
				JOINT RightShoulder
				{
					OFFSET -0.081759 0.118833 -0.038615
					CHANNELS 3 Zrotation Yrotation Xrotation
					JOINT RightArm
					{
						OFFSET -0.096012 0.032551 -0.009143
						CHANNELS 3 Zrotation Yrotation Xrotation
						JOINT RightForeArm
						{
							OFFSET -0.253742 -0.013329 -0.021401
							CHANNELS 3 Zrotation Yrotation Xrotation
							JOINT RightHand
							{
								OFFSET -0.255298 0.007772 -0.005559
								CHANNELS 3 Zrotation Yrotation Xrotation
								End Site
								{
									OFFSET 0.000000 0.000000 0.000000
								}
							}
						}
					}
				}
			}
		}
	}
}
MOTION
Frames: 12
Frame Time: 0.050000
0.000000 0.950757 0.000000 -1.492605 1.027425 2.930604 9.161922 -0.180353 2.231083 -3.785653 0.403707 -4.844327 4.760496 13.236590 17.662466 0.000000 0.000000 0.000000 -5.305197 0.113615 0.612304 3.327728 -0.405559 -4.548086 -10.190060 -22.787649 22.504239 0.000000 0.000000 0.000000 -2.841184 0.061407 -0.745656 4.231089 -0.513662 -22.014515 -0.785487 -1.285411 28.078161 0.081077 1.478757 -27.149249 0.000000 0.000000 0.000000 -24.726037 0.641782 -1.671211 -53.822193 -8.870495 -4.986716 -10.806436 -23.110418 3.453707 0.000000 0.000000 0.000000 16.360833 5.338459 1.828760 61.300936 7.012977 -5.002271 5.293411 23.477110 2.073689 0.000000 0.000000 0.000000 
0.000032 0.949689 0.000257 -1.440383 0.367039 3.366983 9.415521 -0.182247 2.255270 -4.478104 0.451211 -5.427528 5.109191 13.652184 17.724497 0.000000 0.000000 0.000000 -5.488209 0.169438 -0.049783 3.433923 -0.404506 -4.370832 -9.932094 -22.516693 21.958269 0.000000 0.000000 0.000000 -2.997237 0.089034 -2.080034 4.323513 -0.624783 -20.777781 -0.876598 -0.595415 27.873941 -0.130173 1.651168 -27.103038 0.000000 0.000000 0.000000 -25.309694 1.115288 -2.134753 -53.359363 -9.576876 -4.600033 -11.528289 -23.091280 3.578791 0.000000 0.000000 0.000000 15.898944 5.378331 1.902863 62.950114 6.562554 -5.290389 4.535936 25.103404 2.118450 0.000000 0.000000 0.000000 
0.000119 0.949238 0.000374 -1.159313 0.333664 3.460471 9.162368 -0.178700 1.636012 -4.587711 0.464300 -4.495016 5.189741 13.731637 17.485754 0.000000 0.000000 0.000000 -5.639623 0.170928 0.041401 3.139007 -0.388252 -4.698249 -9.951293 -22.554416 21.841481 0.000000 0.000000 0.000000 -2.907681 0.096356 -2.500191 4.145323 -0.584601 -20.646060 -1.189813 -0.636508 28.033128 0.394126 1.308939 -26.560370 0.000000 0.000000 0.000000 -25.273456 0.828897 -1.917911 -53.189734 -9.754348 -4.547249 -10.768412 -22.801679 3.375799 0.000000 0.000000 0.000000 16.982815 6.073934 2.235112 61.857517 6.119086 -5.472471 4.458422 25.182149 2.088461 0.000000 0.000000 0.000000 
0.000153 0.948698 0.000468 -1.213452 0.077809 3.680741 9.449737 -0.188912 1.438280 -5.044654 0.498654 -4.458399 5.351157 13.920033 17.422462 0.000000 0.000000 0.000000 -5.645842 0.204503 -0.479955 3.172658 -0.380949 -4.097439 -9.683043 -22.226528 21.144421 0.000000 0.000000 0.000000 -3.047851 0.106916 -3.014935 4.395336 -0.664645 -20.530848 -1.350454 -0.932753 28.013113 0.334456 1.219116 -25.686134 0.000000 0.000000 0.000000 -25.946442 1.481770 -2.247772 -52.723171 -9.707840 -4.560882 -11.271569 -22.751995 3.485836 0.000000 0.000000 0.000000 16.739722 6.495024 2.344397 62.047222 5.746251 -5.672934 4.831431 25.522349 2.177537 0.000000 0.000000 0.000000 
0.000111 0.948852 0.000539 -1.188052 0.359638 3.485304 9.392583 -0.191612 1.306543 -4.922522 0.491785 -3.952420 5.221905 13.753581 17.281011 0.000000 0.000000 0.000000 -5.604473 0.181488 -0.173486 2.938384 -0.366254 -4.053320 -9.467723 -21.886371 21.038630 0.000000 0.000000 0.000000 -3.010790 0.099226 -2.684864 4.689100 -0.756767 -20.274259 -1.665118 -1.063933 27.621556 0.134983 1.325418 -25.298051 0.000000 0.000000 0.000000 -25.939627 1.565335 -2.339437 -52.895266 -9.704373 -4.519226 -11.728450 -22.859451 3.592019 0.000000 0.000000 0.000000 16.970429 6.253606 2.212614 61.610667 5.504958 -5.720357 5.775094 25.624811 2.377101 0.000000 0.000000 0.000000 
0.000107 0.949194 0.000605 -1.193122 0.470886 3.508842 9.437676 -0.197305 1.247713 -4.968114 0.493648 -3.933419 5.148196 13.669350 17.352928 0.000000 0.000000 0.000000 -5.550602 0.178939 -0.174882 2.748463 -0.350270 -3.836948 -9.140939 -21.407155 20.673319 0.000000 0.000000 0.000000 -3.216615 0.098454 -2.696755 4.900081 -0.787293 -20.636518 -1.639893 -1.390528 28.057934 0.134659 1.278795 -25.343805 0.000000 0.000000 0.000000 -26.111752 1.893725 -2.454513 -53.132569 -9.781444 -4.568557 -11.713565 -22.945927 3.628453 0.000000 0.000000 0.000000 16.526696 6.225007 2.154448 61.734310 5.394410 -5.839189 6.047903 25.398858 2.401504 0.000000 0.000000 0.000000 
0.000052 0.949327 0.000657 -1.188923 0.631584 3.386027 9.545632 -0.202155 1.289911 -5.121018 0.504294 -3.829558 5.045730 13.542605 17.338469 0.000000 0.000000 0.000000 -5.426281 0.169479 -0.132184 2.557575 -0.332972 -3.564997 -9.189846 -21.467764 20.579418 0.000000 0.000000 0.000000 -3.231444 0.093638 -2.466567 4.932983 -0.804234 -20.489736 -1.763034 -1.622433 27.989557 0.273593 1.173649 -25.334498 0.000000 0.000000 0.000000 -26.230975 2.103935 -2.557471 -53.234677 -9.465773 -4.715257 -11.980729 -23.215483 3.741024 0.000000 0.000000 0.000000 16.549148 6.367717 2.196375 61.760432 5.223111 -5.925990 6.293621 25.563609 2.465682 0.000000 0.000000 0.000000 
0.000030 0.949407 0.000712 -1.279214 0.570996 3.317641 9.549180 -0.199273 1.300233 -4.963216 0.494763 -3.685986 5.092755 13.598335 17.307738 0.000000 0.000000 0.000000 -5.287481 0.162102 -0.073054 2.591629 -0.332311 -3.391896 -9.175267 -21.466460 20.163738 0.000000 0.000000 0.000000 -3.121361 0.092355 -2.386982 4.889202 -0.791311 -20.526034 -1.703826 -1.388584 28.189801 0.368203 1.140241 -25.182494 0.000000 0.000000 0.000000 -26.354905 1.862277 -2.472348 -52.983110 -9.251025 -4.806148 -11.996965 -23.501606 3.786837 0.000000 0.000000 0.000000 16.590873 6.276592 2.202144 61.944139 5.233744 -5.957589 6.297136 25.303587 2.450188 0.000000 0.000000 0.000000 
0.000001 0.949430 0.000800 -1.288544 0.530270 3.234958 9.542545 -0.195269 1.404510 -4.937972 0.493523 -3.684255 5.106176 13.614237 17.311509 0.000000 0.000000 0.000000 -5.218849 0.158194 -0.050217 2.535077 -0.327187 -3.354818 -9.298334 -21.649629 20.308560 0.000000 0.000000 0.000000 -3.071248 0.090752 -2.322237 4.845315 -0.781439 -20.514386 -1.642664 -1.288252 28.336240 0.316578 1.176952 -25.096412 0.000000 0.000000 0.000000 -26.326553 1.921790 -2.524441 -53.153970 -9.167547 -4.862148 -11.860235 -23.442251 3.749200 0.000000 0.000000 0.000000 16.580115 6.351320 2.261896 61.936808 5.202007 -5.990538 6.130698 25.134960 2.399937 0.000000 0.000000 0.000000 
-0.000038 0.949502 0.000891 -1.308451 0.426121 3.135440 9.485152 -0.187385 1.517033 -4.816221 0.486202 -3.640177 5.155821 13.676242 17.326790 0.000000 0.000000 0.000000 -5.194773 0.154228 0.008385 2.572498 -0.329649 -3.368790 -9.386912 -21.785295 20.451024 0.000000 0.000000 0.000000 -3.018839 0.088754 -2.228526 4.759932 -0.754579 -20.607295 -1.536168 -1.098629 28.498558 0.139063 1.317149 -25.363465 0.000000 0.000000 0.000000 -26.316132 1.866353 -2.523854 -53.208172 -8.919496 -4.977543 -11.873630 -23.555939 3.769262 0.000000 0.000000 0.000000 16.542374 6.436306 2.338676 61.933816 5.113303 -6.052369 6.160183 24.888425 2.382916 0.000000 0.000000 0.000000 
-0.000087 0.949561 0.000988 -1.289225 0.337719 3.092592 9.539890 -0.184851 1.625679 -4.961031 0.497873 -3.705860 5.175857 13.704528 17.392259 0.000000 0.000000 0.000000 -5.233719 0.152989 0.058847 2.555590 -0.327523 -3.340519 -9.236507 -21.578367 20.320271 0.000000 0.000000 0.000000 -2.992024 0.088039 -2.191923 4.759775 -0.758318 -20.580811 -1.563221 -0.937202 28.454695 0.195157 1.310728 -25.501486 0.000000 0.000000 0.000000 -26.432329 1.831680 -2.551765 -53.056018 -8.669113 -5.065891 -11.780687 -23.546338 3.740818 0.000000 0.000000 0.000000 16.713893 6.497325 2.392692 61.905198 4.986652 -6.111649 6.170921 24.643468 2.359151 0.000000 0.000000 0.000000 
-0.000150 0.949647 0.001095 -1.330313 0.240267 3.142841 9.649386 -0.186835 1.708349 -5.088910 0.506274 -3.898086 5.207961 13.747939 17.480260 0.000000 0.000000 0.000000 -5.243187 0.155698 0.049315 2.624045 -0.330149 -3.230493 -8.976305 -21.212166 19.833933 0.000000 0.000000 0.000000 -2.875308 0.091034 -2.322215 4.713159 -0.751953 -20.513724 -1.538149 -0.852644 28.387626 0.200407 1.329354 -25.785043 0.000000 0.000000 0.000000 -26.290234 1.823746 -2.543407 -53.168622 -8.531237 -5.119901 -11.674058 -23.413442 3.693242 0.000000 0.000000 0.000000 16.551364 6.493096 2.393314 62.036016 4.834842 -6.188165 6.193871 24.482699 2.344631 0.000000 0.000000 0.000000 
